<svg xmlns="http://www.w3.org/2000/svg" width="22.526" height="23.9034" viewBox="0 0 22.526 23.9034"><title>checked</title><g id="Layer_2" data-name="Layer 2"><g id="Layer_1-2" data-name="Layer 1"><path d="M18.392,3.1a2.4136,2.4136,0,0,1,2.411,2.411v14.258a2.4139,2.4139,0,0,1-2.411,2.412H4.134a2.4145,2.4145,0,0,1-2.411-2.412V5.5115A2.4143,2.4143,0,0,1,4.134,3.1H18.392m0-1.722H4.134A4.1462,4.1462,0,0,0,0,5.5115v14.258a4.1464,4.1464,0,0,0,4.134,4.134H18.392a4.1464,4.1464,0,0,0,4.134-4.134V5.5115a4.1462,4.1462,0,0,0-4.134-4.1331" fill="#ebebeb"/><path d="M4.1342.861h14.258a3.272,3.272,0,0,1,3.272,3.272V18.391a3.273,3.273,0,0,1-3.273,3.273H4.1342a3.272,3.272,0,0,1-3.272-3.272V4.133A3.272,3.272,0,0,1,4.1342.861Z" fill="#fff"/><path d="M18.392,1.723a2.413,2.413,0,0,1,2.411,2.411V18.392a2.4137,2.4137,0,0,1-2.411,2.411H4.134a2.4143,2.4143,0,0,1-2.411-2.411V4.134A2.4136,2.4136,0,0,1,4.134,1.723H18.392m0-1.723H4.134A4.1465,4.1465,0,0,0,0,4.134V18.392a4.1462,4.1462,0,0,0,4.134,4.133H18.392a4.1462,4.1462,0,0,0,4.134-4.133V4.134A4.1464,4.1464,0,0,0,18.392,0" fill="#b0b0af"/><polygon points="5.859 9.928 3.017 12.942 9.519 18.454 19.508 7.129 16.193 4.072 8.658 12.388 5.859 9.928" fill="#464546"/></g></g></svg>