<svg xmlns="http://www.w3.org/2000/svg" width="22.525" height="23.9034" viewBox="0 0 22.525 23.9034"><title>unchecked_1</title><g id="Layer_2" data-name="Layer 2"><g id="Layer_1-2" data-name="Layer 1"><path d="M18.392,3.1a2.4136,2.4136,0,0,1,2.411,2.411v14.258a2.4139,2.4139,0,0,1-2.411,2.412H4.134a2.4145,2.4145,0,0,1-2.411-2.412V5.5115A2.4143,2.4143,0,0,1,4.134,3.1H18.392m0-1.722H4.134A4.1456,4.1456,0,0,0,0,5.5115v14.258a4.1458,4.1458,0,0,0,4.134,4.134H18.392a4.1455,4.1455,0,0,0,4.133-4.134V5.5115a4.1454,4.1454,0,0,0-4.133-4.1331" fill="#ebebeb"/><path d="M4.08.861h14.257A3.273,3.273,0,0,1,21.61,4.134V18.392a3.272,3.272,0,0,1-3.272,3.272H4.08a3.272,3.272,0,0,1-3.272-3.272V4.133A3.272,3.272,0,0,1,4.08.861Z" fill="#fff"/><path d="M18.392,1.723a2.413,2.413,0,0,1,2.411,2.411V18.392a2.4137,2.4137,0,0,1-2.411,2.411H4.134a2.4143,2.4143,0,0,1-2.411-2.411V4.134A2.4136,2.4136,0,0,1,4.134,1.723H18.392m0-1.723H4.134A4.1458,4.1458,0,0,0,0,4.134V18.392a4.1455,4.1455,0,0,0,4.134,4.133H18.392a4.1453,4.1453,0,0,0,4.133-4.133V4.134A4.1456,4.1456,0,0,0,18.392,0" fill="#b0b0af"/></g></g></svg>